:version 1.10
:name ASF
:units
  mass 1
  length 1
  angle deg
:documentation
  ASF file generated by Kaydara
:root
  axis xyz
  order  tx ty tz rx ry rz
  position 0 0 0
  orientation 0 0 0
:bonedata
  begin
    id 1
    name RightUpLegDummy
    direction -0.718183 -0.695806 0.00816078
    length 4.904
    axis 0 0 0 xyz
  end
  begin
    id 2
    name RightUpLeg
    direction 3.53373e-006 -0.995788 0.0916898
    length 17.4976
    axis -3.49089 -0.000906625 0.000286804 xyz
    dof rx ry rz
  end
  begin
    id 3
    name RightLeg
    direction 0.00371092 -0.995096 -0.0988419
    length 16.5821
    axis 3.68512 0.0193738 -0.131023 xyz
    dof rx ry rz
  end
  begin
    id 4
    name RightFoot
    direction 0.00079151 -0.46099 0.887405
    length 3.77069
    axis 4.81691e-005 -0.120479 -0.188788 xyz
    dof rx ry rz
  end
  begin
    id 5
    name RightToes
    direction 0 0 0
    length 0
    axis 0 0 0 xyz
    dof rx ry rz
  end
  begin
    id 6
    name SpineDummy
    direction 8.3039e-015 1 4.57515e-016
    length 4.6813
    axis 0 0 0 xyz
  end
  begin
    id 7
    name Spine
    direction -3.15643e-008 0.999988 0.00495137
    length 10.1015
    axis -0.001389 0.000121418 2.40972e-006 xyz
    dof rx ry rz
  end
  begin
    id 8
    name Spine1
    direction 0 0 0
    length 0
    axis -0.001389 0.000121451 1.30017e-006 xyz
    dof rx ry rz
  end
  begin
    id 9
    name HEadDummy
    direction -1.99912e-008 0.999999 0.00127422
    length 3.43865
    axis -0.001389 0.000121451 1.30017e-006 xyz
  end
  begin
    id 10
    name HEad
    direction 0 0 0
    length 0
    axis 0 0 0 xyz
    dof rx ry rz
  end
  begin
    id 11
    name LeftShoulder1Dummy
    direction 0.998891 -0.0402509 -0.0244456
    length 3.5433
    axis -0.001389 0.000121451 1.30017e-006 xyz
  end
  begin
    id 12
    name LeftShoulder1
    direction 0.99951 -0.000327763 0.0313091
    length 4.05031
    axis -0.001389 0.000121451 1.30017e-006 xyz
    dof rx ry rz
  end
  begin
    id 13
    name LeftArm
    direction 0.998561 -0.00100056 -0.0536182
    length 10.3537
    axis -23.1894 0.134784 0.967509 xyz
    dof rx ry rz
  end
  begin
    id 14
    name LeftForeArm
    direction 0.998903 0.00866432 0.046012
    length 8.70632
    axis -9.91835 -0.06569 -0.177794 xyz
    dof rx ry rz
  end
  begin
    id 15
    name LeftHand
    direction 0 0 0
    length 0
    axis 0 0 0 xyz
    dof rx ry rz
  end
  begin
    id 16
    name RightShoulderDummy
    direction -0.998891 -0.0402509 -0.0244414
    length 3.5433
    axis -0.001389 0.000121451 1.30017e-006 xyz
  end
  begin
    id 17
    name RightShoulder
    direction -0.99951 -0.000327807 0.0313133
    length 4.05031
    axis 0.215806 0.000203643 -0.0068026 xyz
    dof rx ry rz
  end
  begin
    id 18
    name RightArm
    direction -0.998573 -0.000999564 -0.053403
    length 10.3947
    axis -23.2009 -0.134239 -0.964101 xyz
    dof rx ry rz
  end
  begin
    id 19
    name RightForeArm
    direction -0.998898 0.00868028 0.0461306
    length 8.68355
    axis -9.92322 0.0658061 0.178868 xyz
    dof rx ry rz
  end
  begin
    id 20
    name RightHand
    direction 0 0 0
    length 0
    axis 0 0 0 xyz
    dof rx ry rz
  end
  begin
    id 21
    name LeftUpLegDummy
    direction 0.718183 -0.695806 0.00816078
    length 4.904
    axis 0 0 0 xyz
  end
  begin
    id 22
    name LeftUpLeg
    direction -6.81752e-006 -0.995793 0.0916337
    length 17.4976
    axis -3.48766 0.00143442 -0.000524262 xyz
    dof rx ry rz
  end
  begin
    id 23
    name LeftLeg
    direction -0.00601358 -0.995091 -0.0987824
    length 16.5821
    axis 3.68178 -0.00654042 -0.000285133 xyz
    dof rx ry rz
  end
  begin
    id 24
    name LeftFoot
    direction -0.00417578 -0.460984 0.887399
    length 3.77069
    axis 1.87233e-006 4.66016e-005 -8.6538e-006 xyz
    dof rx ry rz
  end
  begin
    id 25
    name LeftToes
    direction 0 0 0
    length 0
    axis 0 0 0 xyz
    dof rx ry rz
  end
:hierarchy
  begin
    root RightUpLegDummy SpineDummy LeftUpLegDummy
    RightUpLegDummy RightUpLeg
    RightUpLeg RightLeg
    RightLeg RightFoot
    RightFoot RightToes
    SpineDummy Spine
    Spine Spine1
    Spine1 HEadDummy LeftShoulder1Dummy RightShoulderDummy
    HEadDummy HEad
    LeftShoulder1Dummy LeftShoulder1
    LeftShoulder1 LeftArm
    LeftArm LeftForeArm
    LeftForeArm LeftHand
    RightShoulderDummy RightShoulder
    RightShoulder RightArm
    RightArm RightForeArm
    RightForeArm RightHand
    LeftUpLegDummy LeftUpLeg
    LeftUpLeg LeftLeg
    LeftLeg LeftFoot
    LeftFoot LeftToes
  end

:SAMPLES-PER-SECOND 30
:FULLY-SPECIFIED
:DEGREES
143
root  7.26609 40.3668 1.8394 -177.116 -80.9975 173.821
RightUpLeg  -15.7218 -15.6055 -5.80932
RightLeg  14.3614 0.169857 0.397078
RightFoot  0.30303 -0.97312 9.54299
RightToes  0.000481921 0.542163 -0.142578
Spine  1.38985 -3.49593 -6.33445
Spine1  17.1713 -5.65242 4.68293
HEad  39.5567 4.38769 -0.531631
LeftShoulder1  9.16759 -12.8896 -48.8207
LeftArm  -7.39449 -9.97597 -18.8735
LeftForeArm  40.9432 -46.415 -8.85731
LeftHand  -0.25398 0.0180481 5.50724
RightShoulder  4.71662 8.10923 34.6586
RightArm  -1.04555 -14.4133 38.4499
RightForeArm  7.71055 18.2922 5.24338
RightHand  -1.13541 3.89754 -14.4498
LeftUpLeg  2.34964 6.11979 -1.24976
LeftLeg  8.24127 24.5519 -3.26191
LeftFoot  -8.5846 -0.0190689 2.93925
LeftToes  1.06246e-005 4.65868e-005 -8.65513e-006
144
root  6.76527 40.3311 1.81532 -175.339 -81.1367 172.192
RightUpLeg  -15.4707 -12.9263 -6.91189
RightLeg  8.801 -1.23275 2.19122
RightFoot  1.14312 -1.04063 9.56324
RightToes  0.000481921 0.542163 -0.142578
Spine  1.43068 -3.54268 -6.26261
Spine1  17.2697 -5.83478 5.08205
HEad  39.6869 2.78275 0.251045
LeftShoulder1  9.24041 -12.9958 -48.8925
LeftArm  -6.02237 -10.7472 -19.3706
LeftForeArm  41.7685 -45.6578 -8.53771
LeftHand  -0.25398 0.0180481 5.50724
RightShoulder  4.72474 8.12761 34.6642
RightArm  -2.40326 -14.179 38.3983
RightForeArm  9.26885 17.0713 5.45815
RightHand  -1.13474 3.94864 -14.3674
LeftUpLeg  3.05954 6.05835 -1.50705
LeftLeg  8.10719 24.4064 -3.39203
LeftFoot  -9.22805 0.00582842 2.69299
LeftToes  1.06246e-005 4.65868e-005 -8.65513e-006
145
root  6.23606 40.2999 1.74555 -173.049 -81.4517 170.167
RightUpLeg  -15.217 -9.76051 -8.12299
RightLeg  3.71722 -2.79311 3.40475
RightFoot  2.2874 -1.13468 9.60632
RightToes  0.000481921 0.542163 -0.142578
Spine  1.21768 -3.5562 -6.13493
Spine1  17.473 -5.9729 5.46829
HEad  39.7453 0.931289 1.25375
LeftShoulder1  9.32804 -13.105 -49.0328
LeftArm  -4.65803 -11.3479 -20.0645
LeftForeArm  42.3448 -44.2305 -8.02018
LeftHand  -0.25398 0.0180481 5.50724
RightShoulder  4.73443 8.16806 34.6072
RightArm  -3.80949 -13.9776 38.3089
RightForeArm  11.2411 15.7642 5.6604
RightHand  -1.1036 3.93931 -13.9972
LeftUpLeg  3.72312 5.96056 -1.74251
LeftLeg  7.90252 24.1382 -3.51795
LeftFoot  -9.80077 0.0275104 2.33754
LeftToes  1.06246e-005 4.65868e-005 -8.65513e-006
146
root  5.66605 40.262 1.62046 -170.185 -81.8557 167.63
RightUpLeg  -15.2072 -9.04845 -8.56012
RightLeg  0.0282705 -2.6328 3.74251
RightFoot  3.45485 -1.20884 9.47348
RightToes  0.000481921 0.542163 -0.142578
Spine  0.881358 -3.53346 -6.01445
Spine1  17.5945 -6.05534 5.80994
HEad  39.7765 -0.95167 2.39994
LeftShoulder1  9.3863 -13.1862 -49.0996
LeftArm  -3.23385 -11.4376 -20.9794
LeftForeArm  42.5066 -42.426 -7.43696
LeftHand  -0.25398 0.0180481 5.50724
RightShoulder  4.74458 8.18526 34.6341
RightArm  -4.80009 -13.836 38.0616
RightForeArm  13.0679 14.6087 5.82328
RightHand  -1.03431 3.71052 -13.4571
LeftUpLeg  4.41503 5.80376 -1.96829
LeftLeg  7.66233 23.7925 -3.57104
LeftFoot  -10.4033 0.0472741 1.85683
LeftToes  1.06246e-005 4.65868e-005 -8.65513e-006
147
root  5.0439 40.1938 1.44002 -166.873 -82.2135 164.581
RightUpLeg  -15.3626 -9.32983 -8.79675
RightLeg  -1.31215 -3.0612 3.88519
RightFoot  3.89227 -1.21386 9.25722
RightToes  0.000481921 0.542163 -0.142578
Spine  0.601005 -3.47624 -5.89251
Spine1  17.572 -6.06356 6.02917
HEad  39.7205 -2.60989 3.39778
LeftShoulder1  9.41928 -13.2282 -49.1484
LeftArm  -1.55495 -10.9525 -21.9208
LeftForeArm  42.0009 -40.3461 -6.84763
LeftHand  -0.25398 0.0180481 5.50724
RightShoulder  4.74146 8.15085 34.7258
RightArm  -5.1999 -13.7193 37.6905
RightForeArm  14.2721 13.8545 5.93026
RightHand  -0.97212 3.39938 -13.0951
LeftUpLeg  5.14444 5.72531 -2.11353
LeftLeg  7.73054 23.3058 -3.5113
LeftFoot  -11.2102 0.0657102 1.25214
LeftToes  1.06246e-005 4.65868e-005 -8.65513e-006
148
root  4.37525 40.0989 1.20164 -162.916 -82.6525 160.81
RightUpLeg  -15.5046 -9.62251 -9.06759
RightLeg  -0.436489 -4.7619 3.94237
RightFoot  3.50365 -1.18007 9.21823
RightToes  0.000481921 0.542163 -0.142578
Spine  0.4303 -3.46926 -5.85144
Spine1  17.4636 -6.13537 6.27363
HEad  39.5445 -3.9623 4.08973
LeftShoulder1  9.45679 -13.2497 -49.281
LeftArm  0.391864 -9.96533 -22.7278
LeftForeArm  40.881 -37.9554 -6.24492
LeftHand  -0.25398 0.0180481 5.50724
RightShoulder  4.73708 8.12315 34.7841
RightArm  -5.22846 -13.6403 37.3113
RightForeArm  14.7643 13.634 5.95419
RightHand  -0.950838 3.26427 -13.0041
LeftUpLeg  5.85694 5.81989 -2.06228
LeftLeg  8.22412 22.4549 -3.40671
LeftFoot  -12.1485 0.0765438 0.528404
LeftToes  1.06246e-005 4.65868e-005 -8.65513e-006
149
root  3.67001 40.0246 0.899167 -157.76 -83.4486 155.791
RightUpLeg  -15.241 -9.79174 -9.20456
RightLeg  1.01867 -6.71731 3.73252
RightFoot  3.86887 -1.14005 8.72537
RightToes  0.000481921 0.542163 -0.142578
Spine  0.322716 -3.60363 -5.94233
Spine1  17.3399 -6.45515 6.81646
HEad  39.3813 -5.12224 4.5555
LeftShoulder1  9.50469 -13.2764 -49.4519
LeftArm  2.47594 -8.41291 -23.4009
LeftForeArm  39.5298 -35.2564 -5.61531
LeftHand  -0.25398 0.0180481 5.50724
RightShoulder  4.75254 8.15288 34.8125
RightArm  -5.21323 -13.6954 37.0002
RightForeArm  14.6265 13.8432 5.89418
RightHand  -0.96301 3.33442 -13.0657
LeftUpLeg  6.79553 5.9514 -1.73737
LeftLeg  8.44598 21.1365 -3.43147
LeftFoot  -12.8165 0.0739562 -0.243771
LeftToes  1.06246e-005 4.65868e-005 -8.65513e-006
